# xmcd
#
# Track frame offsets:
#	150
#	23614
#	39063
#	55281
#	70143
#	82933
#	97708
#	110799
#	129451
#	149996
#	164171
#	183237
#	199904
#	219539
#	230688
#	244479
#	258287
#	273793
#	292661
#	308891
#
# Disc length: 4306 seconds
#
# Revision: 1
# Processed by: cddbd v1.4PL0 Copyright (c) Steve Scherf et al.
# Submitted via: audiograbber 1.80
#
DISCID=2110d014
DTITLE=Various Artist - Hott Country 053
DYEAR=1900
DGENRE=
TTITLE0=Dixie Chicks - Cold Day In July
TTITLE1=Martina McBride - There You Are
TTITLE2=Alabama - We Made Love
TTITLE3=Mark Chesnutt - Fallin' Never Felt So Good
TTITLE4=Alan Jackson - It Must Be Love
TTITLE5=Adam Gregory - Horseshoes
TTITLE6=Alecia Elliot - You Wanna What
TTITLE7=Lila McCann - Kiss Me Now
TTITLE8=Kathy Mattea - Trouble With Angels
TTITLE9=River Road - Breathless
TTITLE10=Vince Gill - Feels Like Love
TTITLE11=SHeDAISY - I Will...But
TTITLE12=George Strait/Alan Jackson - Murder On Music Row
TTITLE13=George Jones - Sinners and Saints
TTITLE14=Randy Travis - A Little Left Of Center
TTITLE15=Diamond Rio - Stuff
TTITLE16=Rebecca Lynn Howard - One Here In The Water
TTITLE17=Chely Wright - She Went Out For Cigarettes
TTITLE18=Montgomery Gentry - Self Made Man
TTITLE19=Jeff foxworthy/Marty Stuart - Blue Collar Dollar
EXTD=
EXTT0=
EXTT1=
EXTT2=
EXTT3=
EXTT4=
EXTT5=
EXTT6=
EXTT7=
EXTT8=
EXTT9=
EXTT10=
EXTT11=
EXTT12=
EXTT13=
EXTT14=
EXTT15=
EXTT16=
EXTT17=
EXTT18=
EXTT19=
PLAYORDER=
